<?xml version="1.0" standalone="no"?>
<!DOCTYPE svg PUBLIC "-//W3C//DTD SVG 20010904//EN"
 "http://www.w3.org/TR/2001/REC-SVG-20010904/DTD/svg10.dtd">
<svg version="1.0" xmlns="http://www.w3.org/2000/svg"
 width="257.000000pt" height="257.000000pt" viewBox="0 0 257.000000 257.000000"
 preserveAspectRatio="xMidYMid meet">
<metadata>
Created by potrace 1.11, written by Peter Selinger 2001-2013
</metadata>
<g transform="translate(0.000000,257.000000) scale(0.100000,-0.100000)"
fill="#000000" stroke="none">
<path d="M18 2559 c-7 -5 -11 -423 -12 -1283 l-1 -1276 105 0 105 0 0 1280 c0
847 -3 1280 -10 1281 -69 4 -179 3 -187 -2z"/>
<path d="M410 2562 c-7 -3 -10 -244 -10 -693 l0 -689 300 0 300 0 0 690 c0
606 -2 690 -15 691 -8 0 -44 1 -80 1 -36 0 -76 -1 -89 -1 l-24 -1 0 -462 c-1
-255 -1 -521 -1 -591 l-1 -128 -90 2 c-76 1 -90 4 -90 18 -1 9 -1 274 -1 589
l-1 572 -26 1 c-15 0 -57 1 -95 2 -37 1 -72 1 -77 -1z"/>
<path d="M1213 2562 c-13 -2 -23 -9 -23 -15 -1 -15 -1 -2495 0 -2524 l0 -23
690 0 690 0 0 494 0 495 -102 -2 -103 -2 -1 -380 c-1 -209 -2 -385 -3 -390 -1
-7 -167 -10 -483 -10 l-483 0 -2 1165 c-1 641 -2 1172 -2 1180 -1 12 -17 15
-79 15 -42 0 -87 -1 -99 -3z"/>
<path d="M1603 2562 l-23 -3 0 -1080 0 -1079 63 0 c102 -1 480 -1 508 -1 l27
1 -2 292 -1 293 -100 0 -100 0 -2 -60 c-1 -33 -2 -120 -2 -192 l-1 -133 -89 0
c-62 0 -90 4 -93 12 -2 7 -4 448 -3 981 0 859 -1 967 -15 968 -72 3 -149 3
-167 1z"/>
<path d="M400 494 l0 -494 104 0 104 0 1 348 c0 191 0 367 0 392 l1 45 90 0
c84 1 90 -1 91 -20 0 -11 1 -188 1 -392 l0 -373 104 0 104 0 0 494 0 493 -300
0 -300 1 0 -494z"/>
</g>
</svg>
