<?xml version="1.0" encoding="utf-8"?>
<!-- Generator: Adobe Illustrator 23.0.4, SVG Export Plug-In . SVG Version: 6.00 Build 0)  -->
<svg version="1.1" id="f6245ee5-e739-4f07-8284-f5c00440f05d"
	 xmlns="http://www.w3.org/2000/svg" xmlns:xlink="http://www.w3.org/1999/xlink" x="0px" y="0px" viewBox="0 0 871.9 378.9"
	 style="enable-background:new 0 0 871.9 378.9;" xml:space="preserve">
<style type="text/css">
	.st0{fill:url(#SVGID_1_);}
	.st1{fill:#FFFFFF;}
	.st2{fill:#F5F5F5;}
	.st3{fill:url(#SVGID_2_);}
	.st4{fill:url(#SVGID_3_);}
	.st5{fill:url(#SVGID_4_);}
	.st6{fill:#FF5344;}
	.st7{font-family:'OpenSans-Regular';}
	.st8{font-size:48px;}
	.st9{fill:none;stroke:#000000;stroke-width:2;stroke-miterlimit:10;}
</style>
<title>Search</title>
<linearGradient id="SVGID_1_" gradientUnits="userSpaceOnUse" x1="435.9543" y1="122.9414" x2="435.9543" y2="284.1682" gradientTransform="matrix(1 0 0 -1 0 380.3364)">
	<stop  offset="0" style="stop-color:#808080;stop-opacity:0.25"/>
	<stop  offset="0.5351" style="stop-color:#808080;stop-opacity:0.12"/>
	<stop  offset="1" style="stop-color:#808080;stop-opacity:0.1"/>
</linearGradient>
<rect y="96.2" class="st0" width="871.9" height="161.2"/>
<rect x="5.1" y="101.4" class="st1" width="860.5" height="147.4"/>
<rect x="57.9" y="131.5" class="st2" width="500.2" height="87.7"/>
<linearGradient id="SVGID_2_" gradientUnits="userSpaceOnUse" x1="895.4195" y1="-14.5671" x2="895.4195" y2="105.7289" gradientTransform="matrix(1 0 0 -1 -164.0457 228.6363)">
	<stop  offset="0" style="stop-color:#B3B3B3;stop-opacity:0.25"/>
	<stop  offset="0.5351" style="stop-color:#B3B3B3;stop-opacity:0.1"/>
	<stop  offset="1" style="stop-color:#B3B3B3;stop-opacity:5.000000e-02"/>
</linearGradient>
<path class="st3" d="M752.2,137.1c-17.7-18.4-47-19-65.5-1.3c-18.4,17.7-19,47-1.3,65.5c15.6,16.2,40.5,18.9,59.2,6.4l33.5,34.8
	c0.9,0.9,2.3,0.9,3.2,0.1l0,0l8.3-8c0.9-0.9,0.9-2.3,0.1-3.2l-33.5-34.8C769.4,178.4,767.7,153.3,752.2,137.1z M741.7,193.1
	c-13.2,12.7-34.2,12.3-46.8-0.9s-12.3-34.2,0.9-46.8c13.2-12.7,34.2-12.3,46.8,0.9S754.9,180.4,741.7,193.1L741.7,193.1z"/>
<linearGradient id="SVGID_3_" gradientUnits="userSpaceOnUse" x1="858.2828" y1="62.8247" x2="858.2828" y2="68.6146" gradientTransform="matrix(1 0 0 -1 -164.0457 228.6363)">
	<stop  offset="0" style="stop-color:#000000;stop-opacity:0.12"/>
	<stop  offset="0.5513" style="stop-color:#000000;stop-opacity:9.000000e-02"/>
	<stop  offset="1" style="stop-color:#000000;stop-opacity:2.000000e-02"/>
</linearGradient>
<path class="st4" d="M694.2,160c-3.7,0-3.7,5.8,0,5.8C698,165.8,698,160,694.2,160z"/>
<linearGradient id="SVGID_4_" gradientUnits="userSpaceOnUse" x1="884.8759" y1="69.467" x2="884.8759" y2="87.1754" gradientTransform="matrix(1 0 0 -1 -164.0457 228.6363)">
	<stop  offset="0" style="stop-color:#000000;stop-opacity:0.12"/>
	<stop  offset="0.5513" style="stop-color:#000000;stop-opacity:9.000000e-02"/>
	<stop  offset="1" style="stop-color:#000000;stop-opacity:2.000000e-02"/>
</linearGradient>
<path class="st5" d="M720.2,141.5c-9.6-0.3-18.7,4.4-24,12.4c-1.6,2.5,2.9,4.7,4.5,2.2c4-6.3,11.7-10.3,19.9-10.1
	c8.5,0.3,16.2,4.8,20.7,12c1.6,2.6,5.7,0.2,4.2-2.4C740.4,147.4,730.6,141.7,720.2,141.5z"/>
<path class="st6" d="M752.2,132c-17.7-18.4-47-19-65.5-1.3c-18.4,17.7-19,47-1.3,65.5c15.6,16.2,40.5,18.9,59.2,6.4l33.5,34.8
	c0.9,0.9,2.3,0.9,3.2,0.1l8.3-8c0.9-0.9,0.9-2.3,0.1-3.2l-33.5-34.8C769.4,173.3,767.7,148.2,752.2,132z M741.7,188
	c-13.2,12.7-34.2,12.3-46.8-0.9s-12.3-34.2,0.9-46.8c13.2-12.7,34.2-12.3,46.8,0.9S754.9,175.3,741.7,188L741.7,188z"/>
<path class="st6" d="M694.2,154.9c-3.7,0-3.7,5.8,0,5.8C698,160.7,698,154.9,694.2,154.9z"/>
<path class="st6" d="M720.2,136.4c-9.6-0.3-18.7,4.4-24,12.4c-1.6,2.5,2.9,4.7,4.5,2.2c4-6.3,11.7-10.3,19.9-10.1
	c8.5,0.3,16.2,4.8,20.7,12c1.6,2.6,5.7,0.2,4.2-2.4C740.4,142.3,730.6,136.6,720.2,136.4z"/>
<text transform="matrix(1 0 0 1 77.5053 195.1739)" class="st7 st8">American Red Cross</text>
<line class="st9" x1="528.5" y1="151.5" x2="528.5" y2="201.5"/>
</svg>
