<svg xmlns="http://www.w3.org/2000/svg" viewBox="0 0 384 276.56"><defs><style>.cls-1{fill:#ffd602;stroke-width:3px;}.cls-1,.cls-2,.cls-3,.cls-5{stroke:#000;stroke-miterlimit:10;}.cls-2,.cls-3{fill:none;}.cls-2,.cls-3,.cls-5{stroke-width:2.5px;}.cls-3{stroke-linecap:round;}.cls-4{fill:#231f20;}.cls-5{fill:#fff;}</style></defs><title>onepiece-hero_1</title><g id="Layer_2" data-name="Layer 2"><g id="图层_1" data-name="图层 1"><rect class="cls-1" x="1.5" y="91.65" width="381" height="183.42"/><path d="M184,57.48h-1.12a14,14,0,0,1-13.94-13.95V24.2a14,14,0,0,1,13.3-13.94A14,14,0,0,1,195.67,0h1.12a14,14,0,0,1,13.94,14V33.28a14,14,0,0,1-13.3,13.94A14,14,0,0,1,184,57.48m-1.12-44.06A10.79,10.79,0,0,0,172.09,24.2V43.53a10.79,10.79,0,0,0,10.77,10.78H184a10.84,10.84,0,0,0,10.62-8.93l.23-1.32h2a10.78,10.78,0,0,0,10.77-10.78V14A10.79,10.79,0,0,0,196.79,3.17h-1.12a10.83,10.83,0,0,0-10.62,8.94l-.23,1.31Z"/><path d="M197.72,45.92l-3.12-.54a11.46,11.46,0,0,0,.16-1.85V24.2a10.83,10.83,0,0,0-6-9.64.5.5,0,0,1-.23-.66l.87-2a.51.51,0,0,1,.7-.25,14,14,0,0,1,7.8,12.51V43.53a13.61,13.61,0,0,1-.21,2.39"/><path d="M190.9,45.83a.52.52,0,0,1-.68.29,14.06,14.06,0,0,1-8.5-12.84V14a13.7,13.7,0,0,1,.21-2.39l3.12.55a11.33,11.33,0,0,0-.16,1.84V33.28a10.87,10.87,0,0,0,6.5,9.89.52.52,0,0,1,.28.65Z"/><path d="M164.37,64.21v2.13A2.17,2.17,0,0,1,166,68.43v5.1a2.16,2.16,0,1,1-4.31,0v-5.1a2.16,2.16,0,0,1,1.61-2.09V64.21a4.26,4.26,0,0,0-3.71,4.22v5.1a4.26,4.26,0,0,0,8.51,0v-5.1a4.26,4.26,0,0,0-3.71-4.22"/><polygon points="172.35 68.05 172.35 77.57 170.49 77.57 170.49 64.42 173.08 64.42 175.21 72.29 175.21 64.42 177.04 64.42 177.04 77.57 174.92 77.57 172.35 68.05"/><polygon points="181.48 69.96 184.32 69.96 184.32 71.84 181.48 71.84 181.48 75.69 185.05 75.69 185.05 77.57 179.42 77.57 179.42 64.42 185.05 64.42 185.05 66.3 181.48 66.3 181.48 69.96"/><path d="M193.05,67.67v1.71c0,2.1-1,3.25-3.08,3.25h-1v4.94h-2.06V64.42h3c2.06,0,3.08,1.15,3.08,3.25M189,66.3v4.45h1c.66,0,1-.3,1-1.24v-2c0-.94-.35-1.24-1-1.24Z"/><rect x="194.85" y="64.42" width="2.06" height="13.14"/><polygon points="201.4 69.96 204.24 69.96 204.24 71.84 201.4 71.84 201.4 75.69 204.97 75.69 204.97 77.57 199.34 77.57 199.34 64.42 204.97 64.42 204.97 66.3 201.4 66.3 201.4 69.96"/><path d="M212.64,72.67v1.74c0,2.11-1,3.31-3.08,3.31s-3.07-1.2-3.07-3.31V67.58c0-2.1,1-3.31,3.07-3.31s3.08,1.21,3.08,3.31v1.28h-1.95V67.45c0-.94-.41-1.3-1.07-1.3s-1.07.36-1.07,1.3v7.09c0,.94.41,1.28,1.07,1.28s1.07-.34,1.07-1.28V72.67Z"/><polygon points="216.5 69.96 219.34 69.96 219.34 71.84 216.5 71.84 216.5 75.69 220.07 75.69 220.07 77.57 214.44 77.57 214.44 64.42 220.07 64.42 220.07 66.3 216.5 66.3 216.5 69.96"/><polyline class="cls-2" points="169.84 157.69 177.84 145.11 186.32 146.41 190.75 137.26 197.77 140.51"/><path class="cls-2" d="M170.5,156.65l10.79,9.4,8.25-4.53,6.93,7.19,7.76-6.92v9.45a21.55,21.55,0,0,1-21.55,21.55h0a21.55,21.55,0,0,1-21.55-21.55l0-12-3.68-12a21.54,21.54,0,0,1,14.28-26.92h0a21.54,21.54,0,0,1,26.92,14.28l1.12,3.64"/><path class="cls-2" d="M199,156.7l6.24-20.47a1.09,1.09,0,0,0-1.84-1.07l-17.17,18.29"/><path class="cls-2" d="M175.41,148.94s17.36,7.9,23,7.9c5.19,0,5.86,4.35,5.86,4.35"/><line class="cls-2" x1="192.18" y1="147.14" x2="200.33" y2="152.39"/><line class="cls-2" x1="197.77" y1="141.72" x2="202.15" y2="146.41"/><path class="cls-3" d="M166.48,173.24s2.27,10.25,9.59,11.45"/><path class="cls-2" d="M88.36,157.54l0,12.6a22.65,22.65,0,0,0,22.64,22.65h0a22.65,22.65,0,0,0,22.65-22.65v-9.93l-8.16,7.28-7.27-7.56-8.67,4.76-11.3-7.25L109,147.12l7.85,2.13,7.27-7,8.93,3.22-.25-4a22.65,22.65,0,0,0-24-21.22h0a22.66,22.66,0,0,0-21.22,24l.81,13.17Z"/><line class="cls-2" x1="127" y1="143.47" x2="108.48" y2="163.05"/><line class="cls-2" x1="123.71" y1="164.99" x2="130.27" y2="143.47"/><line class="cls-2" x1="116.52" y1="154.94" x2="125.09" y2="160.46"/><line class="cls-2" x1="122.4" y1="149.25" x2="127" y2="154.18"/><path class="cls-3" d="M94,172.25s2.38,10.77,10.08,12"/><path class="cls-3" d="M24.66,170.32s2.39,10.84,10.13,12.11"/><path class="cls-2" d="M243.07,160.07l-.66,11.75A19.55,19.55,0,0,0,262,191.37h0a19.55,19.55,0,0,0,19.55-19.55v-8.57l-7,6.28L268.2,163l-7.49,4.1-12.58-10.49L246.18,142l6.12-3.74L249,129.51l7.57-3.34-2.74-2.09a18,18,0,0,0-24.93,5.36h0a18,18,0,0,0,5.36,24.93Z"/><path class="cls-3" d="M247.27,173.64s2,9.3,8.7,10.39"/><path class="cls-4" d="M274.26,134.52l6-18.78a2.08,2.08,0,0,0-3.63-1.89l-14.76,19.26,1.79,1.38,14.11-18.4-5.64,17.74Z"/><rect class="cls-4" x="272.6" y="121.24" width="2.26" height="6.05" transform="translate(-19.12 192.17) rotate(-37.47)"/><rect class="cls-4" x="270.01" y="125.28" width="2.26" height="7.88" transform="translate(-14.85 221) rotate(-43.27)"/><path class="cls-4" d="M269,163.84s0-.73,0-3.24c0-1.68.64-3.41,5.41-3.41h8a12.08,12.08,0,0,0,0-24.15H266.05a12,12,0,0,1-8.18-3.2l-2.57-2.38a2.12,2.12,0,0,0-3.55,1.56v11.34a11.8,11.8,0,0,0-1,4.76,12.09,12.09,0,0,0,6.35,10.62,3,3,0,0,1,1.59,2.64l-.43,6.7c.88-.22,1.87,2,2.44,2l.25-8.73a5.27,5.27,0,0,0-2.77-4.63,9.82,9.82,0,0,1-5.16-8.63,9.59,9.59,0,0,1,.88-4.05l.1-.22v-11.5l2.32,2.15a14.25,14.25,0,0,0,9.72,3.81H282.4a9.82,9.82,0,0,1,9.81,9.81,9.85,9.85,0,0,1-9.81,9.81h-8c-5.09,0-7.67,1.91-7.67,5.67,0,2.49,0,3.25,0,3.26.57,0,1.36-.42,2.27,0"/><path class="cls-4" d="M287.45,155.68v-2.27a6.73,6.73,0,0,1-6.73-6.72h-2.26a9,9,0,0,0,9,9"/><path class="cls-4" d="M263,145.79h2.26V143.5a1.49,1.49,0,0,1,3,0v2.29h2.26V143.5a3.75,3.75,0,0,0-7.49,0Z"/><path class="cls-4" d="M343.86,132.81l5.49-17.28a1.91,1.91,0,0,0-3.34-1.74l-13.59,17.72,1.65,1.27,13-16.94-5.19,16.34Z"/><rect class="cls-4" x="342.32" y="120.58" width="2.08" height="5.57" transform="translate(-4.2 234.35) rotate(-37.47)"/><rect class="cls-4" x="339.95" y="124.31" width="2.08" height="7.25" transform="translate(5.02 268.53) rotate(-43.27)"/><path class="cls-4" d="M317.45,163.64a7.75,7.75,0,0,0,3.46-.8l5-.63-.26-2.07-5.39.68-.17.09a5.83,5.83,0,0,1-5.37-10.34,5.91,5.91,0,0,1,1.91-.6l1.08-.14-.19-1.07a5.9,5.9,0,0,1,1.16-4.62l.39-.49-.27-.58a5.82,5.82,0,0,1,2.61-7.59l2.18-1.14a5.61,5.61,0,0,1,.88-.36l-.65-2a7.31,7.31,0,0,0-1.19.5l-2.18,1.13a7.9,7.9,0,0,0-3.78,9.74,7.89,7.89,0,0,0-1.31,4.74,7.76,7.76,0,0,0-1.6.61,7.91,7.91,0,0,0,3.66,14.92"/><path class="cls-4" d="M319.39,192.44h2.08V172a12.61,12.61,0,0,1,9.38-12.17l-.53-2A14.7,14.7,0,0,0,319.39,172Z"/><path class="cls-4" d="M342.5,192.48h2.09v-7.82a9.65,9.65,0,0,0,17.22-6v-8.79h-6.23v8.34a3.43,3.43,0,0,1-6.85,0V172a14.79,14.79,0,0,0-10.45-14l-.6,2a12.71,12.71,0,0,1,9,12.06v6.22a5.51,5.51,0,0,0,11,0v-6.86h2.07v7.31a7.57,7.57,0,1,1-15.14,0H342.5Z"/><rect class="cls-4" x="319.8" y="180.58" width="2.11" height="11.9"/><path class="cls-4" d="M358.1,162.41h1.56v-6.66a.48.48,0,1,1,1,0v5.84h1.56v-5.84a2,2,0,0,0-4.08,0Z"/><path class="cls-4" d="M355.58,158.23a2,2,0,0,1,2-2,2,2,0,0,1,2,2v4.18H358.1v-4.18a.48.48,0,1,0-1,0v11.35l7.84-.06a3,3,0,0,0,3-3,.16.16,0,0,0-.16-.16h-.12a.16.16,0,0,0-.16.16,2.52,2.52,0,0,1-2.52,2.52,2.48,2.48,0,0,1-2.48-2.46l0-3.22A2.48,2.48,0,0,1,365,160.9h0a2.51,2.51,0,0,1,2.52,2.51.19.19,0,0,0,.19.2h.05a.2.2,0,0,0,.2-.2,3,3,0,0,0-3-3h-1.84V155.2a.48.48,0,0,0-1,0v6.39h-1.56V155.2a2,2,0,1,1,4.08,0v3.69H365a4.53,4.53,0,0,1,4.52,4.52,1.75,1.75,0,0,1-1,1.58,1.74,1.74,0,0,1,1,1.56,4.53,4.53,0,0,1-4.52,4.53l-9.4.07ZM366.92,165a1.76,1.76,0,0,1-1-1.58,1,1,0,0,0-.95-.95h0a.9.9,0,0,0-.91.92l0,3.22a.93.93,0,0,0,.92.91,1,1,0,0,0,.95-1,1.75,1.75,0,0,1,1-1.56"/><path class="cls-4" d="M339,160.45s0-1.32,0-3.63c0-1.56.6-3.14,5-3.14h7.35a11.16,11.16,0,0,0,11.11-11.12,11.13,11.13,0,0,0-11.11-11.11H336.3a11.06,11.06,0,0,1-7.53-2.95l-2.37-2.18a1.95,1.95,0,0,0-3.27,1.43v10.44a11,11,0,0,0-.9,4.37,11.12,11.12,0,0,0,5.84,9.78,2.77,2.77,0,0,1,1.46,2.43v5.34a11.58,11.58,0,0,1,2.09-.36v-5a4.89,4.89,0,0,0-2.56-4.26,9.05,9.05,0,0,1-4.75-7.95,8.87,8.87,0,0,1,.81-3.72l.1-.21V128.06l2.13,2a13.13,13.13,0,0,0,8.95,3.5h15.05a9,9,0,0,1,0,18.06H344c-4.68,0-7.06,1.76-7.06,5.23,0,2.29,0,3,0,3a7,7,0,0,1,2.08.63"/><path class="cls-4" d="M356,152.28V150.2A6.2,6.2,0,0,1,349.8,144h-2.08a8.28,8.28,0,0,0,8.27,8.27"/><path class="cls-4" d="M333.53,143.18h2.08v-2.1a1.37,1.37,0,1,1,2.73,0v2.1h2.09v-2.1a3.45,3.45,0,1,0-6.9,0Z"/><rect class="cls-4" x="355.58" y="171.18" width="0.07" height="0.06"/><path class="cls-2" d="M63.39,164.46v4.78A22.16,22.16,0,0,1,41.22,191.4h0a22.16,22.16,0,0,1-22.16-22.16V142.4a22.16,22.16,0,0,1,22.16-22.17h0A22.16,22.16,0,0,1,63.39,142.4v10.25"/><polyline class="cls-3" points="63.39 152.65 54.56 146.18 47.14 152.65 38.09 147.52 27.75 155.82 38.09 153.98 48.34 160.67 54.58 155.82 63.39 164.46"/><rect class="cls-2" x="1.5" y="192.79" width="381" height="8.17"/><rect class="cls-5" x="109.25" y="217.06" width="165.54" height="13" rx="6.5"/><line class="cls-5" x1="123.8" y1="217.06" x2="115.75" y2="230.06"/><line class="cls-5" x1="134.03" y1="217.06" x2="125.98" y2="230.06"/><line class="cls-5" x1="144.75" y1="217.06" x2="136.7" y2="230.06"/><line class="cls-5" x1="154.98" y1="217.06" x2="146.93" y2="230.06"/><line class="cls-5" x1="165.91" y1="217.06" x2="157.86" y2="230.06"/><line class="cls-5" x1="176.13" y1="217.06" x2="168.08" y2="230.06"/><line class="cls-5" x1="186.86" y1="217.06" x2="178.81" y2="230.06"/><line class="cls-5" x1="197.08" y1="217.06" x2="189.03" y2="230.06"/><line class="cls-5" x1="207.69" y1="217.06" x2="199.64" y2="230.06"/><line class="cls-5" x1="217.91" y1="217.06" x2="209.86" y2="230.06"/><line class="cls-5" x1="228.64" y1="217.06" x2="220.59" y2="230.06"/><line class="cls-5" x1="238.86" y1="217.06" x2="230.81" y2="230.06"/><line class="cls-5" x1="249.52" y1="217.06" x2="241.47" y2="230.06"/><line class="cls-5" x1="259.74" y1="217.06" x2="251.69" y2="230.06"/><line class="cls-5" x1="268.78" y1="217.06" x2="260.73" y2="230.06"/><path d="M128.8,241.35v9.44h-1.22v-9.44Z"/><path d="M130.93,250.79v-9.44h1.33l3,4.78a25.6,25.6,0,0,1,1.7,3.06h0c-.11-1.26-.14-2.41-.14-3.88v-4H138v9.44h-1.24l-3-4.79a30.61,30.61,0,0,1-1.77-3.15h0c.07,1.19.1,2.33.1,3.9v4Z"/><path d="M146.74,250.48a6,6,0,0,1-2.5.45,4.41,4.41,0,0,1-4.66-4.78,4.69,4.69,0,0,1,4.93-5,5,5,0,0,1,2.24.42l-.29,1a4.5,4.5,0,0,0-1.91-.39c-2.21,0-3.68,1.41-3.68,3.89,0,2.31,1.33,3.8,3.63,3.8a4.86,4.86,0,0,0,2-.39Z"/><path d="M149.48,241.35v5.59c0,2.11.94,3,2.2,3s2.3-.92,2.3-3v-5.59h1.23v5.5c0,2.91-1.53,4.1-3.57,4.1s-3.39-1.11-3.39-4v-5.56Z"/><path d="M157.32,241.48a11.12,11.12,0,0,1,2.23-.2,3.89,3.89,0,0,1,2.59.69,2,2,0,0,1,.78,1.66,2.25,2.25,0,0,1-1.6,2.08v0a2.44,2.44,0,0,1,2,2.37,2.53,2.53,0,0,1-.8,1.89,4.74,4.74,0,0,1-3.26.89,13.24,13.24,0,0,1-1.89-.12Zm1.22,3.86h1.1c1.29,0,2.05-.67,2.05-1.58,0-1.11-.84-1.54-2.07-1.54a5.46,5.46,0,0,0-1.08.08Zm0,4.53a6.85,6.85,0,0,0,1,0c1.26,0,2.42-.46,2.42-1.83s-1.1-1.82-2.43-1.82h-1Z"/><path d="M166.43,247.82l-1,3h-1.26l3.21-9.44h1.47l3.22,9.44h-1.3l-1-3Zm3.1-.95-.93-2.72c-.21-.61-.35-1.18-.49-1.72h0q-.21.84-.48,1.71l-.92,2.73Z"/><path d="M174.19,242.39h-2.87v-1h7v1h-2.89v8.4h-1.23Z"/><path d="M180.57,241.35v9.44h-1.22v-9.44Z"/><path d="M182.7,250.79v-9.44H184l3,4.78a26.9,26.9,0,0,1,1.69,3.06h0c-.11-1.26-.14-2.41-.14-3.88v-4h1.15v9.44h-1.23l-3-4.79a30.61,30.61,0,0,1-1.77-3.15h0c.07,1.19.1,2.33.1,3.9v4Z"/><path d="M199.1,250.37a8.73,8.73,0,0,1-2.9.52,4.44,4.44,0,0,1-4.85-4.76,4.74,4.74,0,0,1,5.11-4.88,5.77,5.77,0,0,1,2.36.44l-.3,1a4.91,4.91,0,0,0-2.08-.41,3.53,3.53,0,0,0-3.8,3.8,3.46,3.46,0,0,0,3.64,3.81,4,4,0,0,0,1.63-.25v-2.82H196v-1h3.11Z"/><path d="M206.16,242.84h0l-1.59.85-.23-.94,2-1.06h1.05v9.1h-1.2Z"/><path d="M216.72,246.14c0,3.1-1.15,4.81-3.16,4.81-1.78,0-3-1.67-3-4.68s1.32-4.74,3.17-4.74S216.72,243.24,216.72,246.14Zm-4.94.14c0,2.37.73,3.71,1.85,3.71s1.86-1.47,1.86-3.79-.57-3.72-1.85-3.72C212.56,242.48,211.78,243.8,211.78,246.28Z"/><path d="M223.9,246.14c0,3.1-1.14,4.81-3.16,4.81-1.78,0-3-1.67-3-4.68s1.31-4.74,3.16-4.74S223.9,243.24,223.9,246.14Zm-4.94.14c0,2.37.73,3.71,1.85,3.71s1.86-1.47,1.86-3.79-.57-3.72-1.85-3.72C219.74,242.48,219,243.8,219,246.28Z"/><path d="M229.14,244.25c0,1.92-1,2.87-2.19,2.87s-2.11-.91-2.13-2.74,1-2.85,2.2-2.85S229.14,242.51,229.14,244.25Zm-3.33.08c0,1.17.4,2,1.17,2s1.18-.87,1.18-2.07-.32-2-1.18-2S225.81,243.18,225.81,244.33Zm1.06,6.62,5.35-9.42H233L227.66,251Zm8.2-2.93c0,1.92-1,2.87-2.18,2.87s-2.11-.91-2.13-2.73,1-2.86,2.2-2.86S235.07,246.28,235.07,248Zm-3.34.08c0,1.16.43,2.05,1.19,2.05s1.18-.87,1.18-2.08-.32-2-1.18-2S231.73,247,231.73,248.1Z"/><rect x="1.5" y="267.72" width="381" height="7.67"/><rect x="1.5" y="91.65" width="381" height="7.67"/></g></g></svg>