<?xml version="1.0" encoding="UTF-8"?>
<svg width="31px" height="32px" viewBox="0 0 31 32" version="1.1" xmlns="http://www.w3.org/2000/svg" xmlns:xlink="http://www.w3.org/1999/xlink">
    <!-- Generator: Sketch 52.2 (67145) - http://www.bohemiancoding.com/sketch -->
    <title>Group 7</title>
    <desc>Created with Sketch.</desc>
    <defs>
        <path d="M0,15.2941176 C0,23.4152941 6.36521569,30 14.2156863,30 C22.0672941,30 28.4325098,23.4152941 28.4325098,15.2941176 C28.4325098,7.17176471 22.0672941,0.587058824 14.2156863,0.587058824 C6.36521569,0.587058824 0,7.17176471 0,15.2941176 Z" id="path-1"></path>
        <path d="M-3.17290869e-10,8.33451783 L-3.17290869e-10,8.13608318 C0.0515557732,3.64043737 3.60242738,0 7.96078431,0 C12.3505882,0 15.9215686,3.69411765 15.9215686,8.23529412 C15.9215686,12.7439392 12.4024792,16.4172547 8.05668701,16.4705883 L7.86486806,16.4705882 C3.55044823,16.4176465 0.0511770548,12.7977108 -1.66145045e-08,8.33451658 L-3.17290869e-10,8.33451783 Z M6.25490196,1.36352941 C6.44823529,1.61294118 7.714,3.27235294 8.85580392,5.29470588 C11.334451,4.39941176 12.3847059,3.04176471 12.5103725,2.86882353 C10.7953922,1.40470588 8.46572549,0.851176471 6.25490196,1.36352941 Z M1.13668627,6.47 C1.16,6.47 1.19866667,6.47117647 1.24927451,6.47117647 C1.86907843,6.47117647 4.46998039,6.42176471 7.39272549,5.65117647 C6.27139216,3.67176471 5.0624902,2.00764706 4.88337255,1.76411765 C2.99041176,2.65235294 1.57623529,4.38529412 1.13668627,6.47 Z M9.66609804,6.72470588 C9.89582353,7.19882353 10.063,7.58411765 10.2398431,8.02176471 C12.412,7.74588235 14.5693725,8.18882353 14.7843137,8.23529412 C14.7706667,6.67529412 14.2202353,5.24176471 13.3115686,4.11764706 C13.1728235,4.30588235 12.0793529,5.72647059 9.66609804,6.72470588 Z M7.98921569,7.05882353 C5.04372549,7.98352941 2.17556863,8.05588235 1.35333333,8.05588235 C1.24643137,8.05588235 1.17364706,8.05411765 1.14123529,8.05294118 C1.13839216,8.12529412 1.13668627,8.19588235 1.13668627,8.26823529 C1.13668627,10.0623529 1.7854902,11.7017647 2.85052941,12.9411765 C3.93092157,11.0011765 6.11956863,8.95764706 8.52998039,8.24529412 C8.36166667,7.84764706 8.17970588,7.45117647 7.98921569,7.05882353 Z M10.8033529,8.94058824 C11.6398039,11.5505882 11.9792745,13.6758824 12.0452353,14.1176471 C13.4781765,13.0158824 14.4994314,11.2717647 14.7843137,9.25058824 C14.5653922,9.17176471 12.8060588,8.57705882 10.8033529,8.94058824 Z M3.97982353,13.8117647 C5.21886274,14.81 6.69160784,15.2947059 8.14956863,15.2947059 C9.05994118,15.2947059 9.96462745,15.1064706 10.8033529,14.7352941 C10.7021373,14.1205882 10.3080784,11.9741176 9.35562745,9.41058824 C6.61654902,10.3764706 4.69060784,12.3123529 3.97982353,13.8117647 Z" id="path-3"></path>
    </defs>
    <g id="Page-1" stroke="none" stroke-width="1" fill="none" fill-rule="evenodd">
        <g id="Group-7" transform="translate(1.000000, 1.000000)">
            <g id="Group-3">
                <mask id="mask-2" fill="white">
                    <use xlink:href="#path-1"></use>
                </mask>
                <use id="Clip-2" stroke="#FFFFFF" stroke-width="2" xlink:href="#path-1"></use>
                <polygon id="Fill-1" stroke="#FFFFFF" stroke-width="2" mask="url(#mask-2)" points="-2.84313725 32.9411765 31.2745098 32.9411765 31.2745098 -2.35294118 -2.84313725 -2.35294118"></polygon>
            </g>
            <g id="Group-6" transform="translate(6.254902, 7.058824)">
                <mask id="mask-4" fill="white">
                    <use xlink:href="#path-3"></use>
                </mask>
                <g id="Clip-5"></g>
                <polygon id="Fill-4" fill="#FFFFFF" mask="url(#mask-4)" points="-2.84313725 19.4117647 18.7647059 19.4117647 18.7647059 -2.94117647 -2.84313725 -2.94117647"></polygon>
            </g>
        </g>
    </g>
</svg>