<?xml version="1.0" encoding="UTF-8"?>
<svg width="50px" height="50px" viewBox="0 0 50 50" version="1.1" xmlns="http://www.w3.org/2000/svg" xmlns:xlink="http://www.w3.org/1999/xlink">
    <!-- Generator: Sketch 52.2 (67145) - http://www.bohemiancoding.com/sketch -->
    <title>Group 7</title>
    <desc>Created with Sketch.</desc>
    <defs>
        <path d="M0,25.4901961 C0,39.0254902 10.9745098,50 24.5098039,50 C38.0470588,50 49.0215686,39.0254902 49.0215686,25.4901961 C49.0215686,11.9529412 38.0470588,0.978431373 24.5098039,0.978431373 C10.9745098,0.978431373 0,11.9529412 0,25.4901961 Z" id="path-1"></path>
        <path d="M-5.61972882e-10,13.890863 L-5.61972882e-10,13.5601386 C0.0888892641,6.06739561 6.21108168,0 13.7254902,0 C21.2941176,0 27.4509804,6.15686275 27.4509804,13.7254902 C27.4509804,21.2398987 21.3835848,27.3620911 13.8908397,27.4509804 L13.5601173,27.4509804 C6.12146246,27.3627441 0.0882363013,21.3295179 -2.8660617e-08,13.890861 L-5.61972882e-10,13.890863 Z M10.7843137,2.27254902 C11.1176471,2.68823529 13.3,5.45392157 15.2686275,8.8245098 C19.5421569,7.33235294 21.3529412,5.06960784 21.5696078,4.78137255 C18.6127451,2.34117647 14.5960784,1.41862745 10.7843137,2.27254902 Z M1.95980392,10.7833333 C2,10.7833333 2.06666667,10.7852941 2.15392157,10.7852941 C3.22254902,10.7852941 7.70686274,10.7029412 12.7460784,9.41862745 C10.8127451,6.11960784 8.72843137,3.34607843 8.41960784,2.94019608 C5.15588235,4.42058824 2.71764706,7.30882353 1.95980392,10.7833333 Z M16.6656863,11.2078431 C17.0617647,11.9980392 17.35,12.6401961 17.654902,13.3696078 C21.4,12.9098039 25.1196078,13.6480392 25.4901961,13.7254902 C25.4666667,11.1254902 24.5176471,8.73627451 22.9509804,6.8627451 C22.7117647,7.17647059 20.8264706,9.54411765 16.6656863,11.2078431 Z M13.7745098,11.7647059 C8.69607843,13.3058824 3.75098039,13.4264706 2.33333333,13.4264706 C2.14901961,13.4264706 2.02352941,13.4235294 1.96764706,13.4215686 C1.9627451,13.5421569 1.95980392,13.6598039 1.95980392,13.7803922 C1.95980392,16.7705882 3.07843137,19.5029412 4.91470588,21.5686275 C6.77745098,18.3352941 10.5509804,14.9294118 14.7068627,13.7421569 C14.4166667,13.0794118 14.1029412,12.4186275 13.7745098,11.7647059 Z M18.6264706,14.9009804 C20.0686275,19.2509804 20.6539216,22.7931373 20.7676471,23.5294118 C23.2382353,21.6931373 24.9990196,18.7862745 25.4901961,15.4176471 C25.1127451,15.2862745 22.0794118,14.295098 18.6264706,14.9009804 Z M6.86176471,23.0196078 C8.99803922,24.6833333 11.5372549,25.4911765 14.0509804,25.4911765 C15.6205882,25.4911765 17.1803922,25.177451 18.6264706,24.5588235 C18.4519608,23.5343137 17.772549,19.9568627 16.1303922,15.6843137 C11.4078431,17.2941176 8.0872549,20.5205882 6.86176471,23.0196078 Z" id="path-3"></path>
    </defs>
    <g id="Page-1" stroke="none" stroke-width="1" fill="none" fill-rule="evenodd">
        <g id="works-01-Streamline" transform="translate(-1275.000000, -858.000000)">
            <g id="Group-2" transform="translate(0.000000, 807.000000)">
                <g id="Group-7" transform="translate(1275.000000, 51.000000)">
                    <g id="Group-3">
                        <mask id="mask-2" fill="white">
                            <use xlink:href="#path-1"></use>
                        </mask>
                        <g id="Clip-2"></g>
                        <polygon id="Fill-1" fill="#4A4A4A" mask="url(#mask-2)" points="-4.90196078 54.9019608 53.9215686 54.9019608 53.9215686 -3.92156863 -4.90196078 -3.92156863"></polygon>
                    </g>
                    <g id="Group-6" transform="translate(10.784314, 11.764706)">
                        <mask id="mask-4" fill="white">
                            <use xlink:href="#path-3"></use>
                        </mask>
                        <g id="Clip-5"></g>
                        <polygon id="Fill-4" fill="#FFFFFF" mask="url(#mask-4)" points="-4.90196078 32.3529412 32.3529412 32.3529412 32.3529412 -4.90196078 -4.90196078 -4.90196078"></polygon>
                    </g>
                </g>
            </g>
        </g>
    </g>
</svg>