<?xml version="1.0" encoding="UTF-8"?>
<svg width="50px" height="50px" viewBox="0 0 50 50" version="1.1" xmlns="http://www.w3.org/2000/svg" xmlns:xlink="http://www.w3.org/1999/xlink">
    <!-- Generator: Sketch 52.2 (67145) - http://www.bohemiancoding.com/sketch -->
    <title>floating_Email_normal</title>
    <desc>Created with Sketch.</desc>
    <g id="Page-1" stroke="none" stroke-width="1" fill="none" fill-rule="evenodd">
        <g id="works-01-Streamline" transform="translate(-1417.000000, -858.000000)">
            <g id="Group-2" transform="translate(0.000000, 807.000000)">
                <g id="floating_Email_normal" transform="translate(1417.000000, 51.000000)">
                    <circle id="Oval-9" fill="#525252" cx="25" cy="25" r="25"></circle>
                    <path d="M11.2367376,35.5733899 C14.1609223,32.6242011 17.6753029,29.0921967 20.0184111,26.7453257 C20.2333717,26.9600795 20.4391759,27.1657748 20.6341763,27.3607752 C23.0749531,29.801552 27.0322343,29.801552 29.4730111,27.3607752 C29.6469191,27.1868672 29.8358688,26.9972401 30.0376814,26.7941504 C31.738916,28.4914952 35.3298781,32.075726 36.8900428,33.639229 C36.9593745,33.7087116 36.9593745,33.7087116 37.0287002,33.7781984 C37.6484012,34.3993634 38.237786,34.9910749 38.7970017,35.5535569 C38.0510465,35.9959929 37.1801865,36.25 36.25,36.25 L13.75,36.25 C12.8338023,36.25 11.9751603,36.0035754 11.2367376,35.5733899 Z M9.45810021,33.8165542 C9.00847165,33.0662819 8.75,32.1883256 8.75,31.25 L8.75,18.75 C8.75,17.8222386 9.00268435,16.9534949 9.44298643,16.2088353 C10.6433973,17.4028152 14.8951783,21.633732 18.2490261,24.9791784 C15.9028185,27.329155 12.3849233,30.8646951 9.45810021,33.8165542 Z M38.7985514,32.0125182 C38.7291269,31.9429323 38.7291269,31.9429323 38.659698,31.8733523 C37.0949234,30.3052295 33.4925728,26.7096415 31.7953527,25.0163084 C35.0005477,21.7626218 39.3768317,17.2734029 40.5058413,16.1242125 C40.9776819,16.8873412 41.25,17.786869 41.25,18.75 L41.25,31.25 C41.25,32.1743257 40.9991836,33.0400702 40.5618974,33.7828868 C40.0039956,33.2217371 39.4162709,32.6316969 38.7985514,32.0125182 Z M27.7052441,25.5930082 C26.240778,27.0574743 23.8664094,27.0574743 22.4019433,25.5930082 C19.1051796,22.2962445 12.7277455,15.9499193 11.2112518,14.4415585 C11.9553741,14.0021381 12.823242,13.75 13.75,13.75 L36.25,13.75 C37.1413913,13.75 37.9783015,13.9832612 38.7030202,14.3920732 C37.1809105,15.9419665 30.4890922,22.8091602 27.7052441,25.5930082 Z" id="Combined-Shape" fill="#FFFFFF"></path>
                </g>
            </g>
        </g>
    </g>
</svg>