<?xml version="1.0" encoding="UTF-8"?>
<svg width="31px" height="32px" viewBox="0 0 31 32" version="1.1" xmlns="http://www.w3.org/2000/svg" xmlns:xlink="http://www.w3.org/1999/xlink">
    <!-- Generator: Sketch 52.2 (67145) - http://www.bohemiancoding.com/sketch -->
    <title>floating_Email_normal</title>
    <desc>Created with Sketch.</desc>
    <g id="Page-1" stroke="none" stroke-width="1" fill="none" fill-rule="evenodd">
        <g id="floating_Email_normal" transform="translate(1.000000, 1.000000)">
            <ellipse id="Oval-9" stroke="#FFFFFF" stroke-width="2" cx="14.5" cy="15" rx="14.5" ry="15"></ellipse>
            <path d="M6.51730778,21.344034 C8.21333496,19.5745207 10.2516757,17.455318 11.6106784,16.0471954 C11.7353556,16.1760477 11.854722,16.2994649 11.9678223,16.4164651 C13.3834728,17.8809312 15.6786959,17.8809312 17.0943464,16.4164651 C17.1952131,16.3121203 17.3048039,16.1983441 17.4218552,16.0764902 C18.4085713,17.0948971 20.4913293,19.2454356 21.3962248,20.1835374 C21.4364372,20.225227 21.4364372,20.225227 21.4766461,20.2669191 C21.8360727,20.639618 22.1779159,20.9946449 22.502261,21.3321341 C22.069607,21.5975957 21.5645082,21.75 21.025,21.75 L7.975,21.75 C7.44360536,21.75 6.94559295,21.6021452 6.51730778,21.344034 Z M5.48569812,20.2899325 C5.22491356,19.8397691 5.075,19.3129954 5.075,18.75 L5.075,11.25 C5.075,10.6933432 5.22155693,10.1720969 5.47693213,9.72530118 C6.17317042,10.4416891 8.63920339,12.9802392 10.5844352,14.987507 C9.22363471,16.397493 7.18325549,18.5188171 5.48569812,20.2899325 Z M22.5031598,19.2075109 C22.4628936,19.1657594 22.4628936,19.1657594 22.4226248,19.1240114 C21.5150556,18.1831377 19.4256922,16.0257849 18.4413046,15.009785 C20.3003177,13.0575731 22.8385624,10.3640417 23.493388,9.67452749 C23.7670555,10.1324047 23.925,10.6721214 23.925,11.25 L23.925,18.75 C23.925,19.3045954 23.7795265,19.8240421 23.5259005,20.2697321 C23.2023174,19.9330423 22.8614371,19.5790181 22.5031598,19.2075109 Z M16.0690416,15.3558049 C15.2196513,16.2344846 13.8425174,16.2344846 12.9931271,15.3558049 C11.0810042,13.3777467 7.3820924,9.56995157 6.50252607,8.6649351 C6.93411696,8.40128285 7.43748038,8.25 7.975,8.25 L21.025,8.25 C21.542007,8.25 22.0274149,8.38995674 22.4477517,8.63524394 C21.5649281,9.56517988 17.6836735,13.6854961 16.0690416,15.3558049 Z" id="Combined-Shape" fill="#FFFFFF"></path>
        </g>
    </g>
</svg>