<svg xmlns="http://www.w3.org/2000/svg" viewBox="0 0 140.04 140.06"><title>external-link</title><g id="Layer_2" data-name="Layer 2"><g id="Layer_1-2" data-name="Layer 1"><path d="M.05.05C.53,0,.88,0,1.22,0,10.48,0,19.73,0,29,0a2.44,2.44,0,0,1,1.55.55Q40,10,49.45,19.45a5.78,5.78,0,0,1,.43.53H20v1.39q0,44,0,88a15.35,15.35,0,0,0,.41,3.83,9,9,0,0,0,8.22,6.74c.74,0,1.48.06,2.22.06H120V90.07c.5.46.79.69,1,1q9.12,9.11,18.21,18.24a2.6,2.6,0,0,1,.77,1.58c.05,9.45,0,18.9,0,28.36,0,.22,0,.45-.07.79-.45,0-.87,0-1.29,0-36.05,0-72.1.06-108.15,0-12.33,0-21.69-5.37-27.45-16.47A29.37,29.37,0,0,1,0,109.84Q0,55.54,0,1.22C0,.88,0,.53.05.05Z"/><path d="M115.15,44.93,60.05,100c-4.63-4.67-7.87-10-8.76-16.52-1.23-9,2-16.56,8.17-22.85C70.88,49,82.46,37.58,94,26.07a8,8,0,0,1,1.25-.82L70.08.1h69.86V69.75C131.67,61.47,123.46,53.24,115.15,44.93Z"/></g></g></svg>