<svg xmlns="http://www.w3.org/2000/svg" viewBox="0 0 117.18 117"><defs><style>.cls-1{fill:#fff;}</style></defs><title>HL-lgo</title><g id="Layer_2" data-name="Layer 2"><g id="Layer_1-2" data-name="Layer 1"><rect class="cls-1" width="9.35" height="117"/><polygon class="cls-1" points="117.18 71.89 117.18 117 53.92 117 53.92 0 63.26 0 63.26 107.65 107.83 107.65 107.83 71.89 117.18 71.89"/><polygon class="cls-1" points="99.21 71.89 99.21 98.85 71.89 98.85 71.89 0 81.24 0 81.24 89.68 89.86 89.68 89.86 71.89 99.21 71.89"/><polygon class="cls-1" points="45.29 0 45.29 62.9 17.98 62.9 17.98 0 27.32 0 27.32 53.92 35.95 53.92 35.95 0 45.29 0"/><polygon class="cls-1" points="45.29 71.89 45.29 117 35.95 117 35.95 81.07 27.32 81.07 27.32 117 17.98 117 17.98 71.89 45.29 71.89"/></g></g></svg>