<?xml version="1.0" encoding="UTF-8"?>
<svg width="29px" height="30px" viewBox="0 0 29 30" version="1.1" xmlns="http://www.w3.org/2000/svg" xmlns:xlink="http://www.w3.org/1999/xlink">
    <!-- Generator: Sketch 52.2 (67145) - http://www.bohemiancoding.com/sketch -->
    <title>linkedin</title>
    <desc>Created with Sketch.</desc>
    <g id="Page-1" stroke="none" stroke-width="1" fill="none" fill-rule="evenodd">
        <g id="linkedin">
            <rect id="Rectangle" x="0" y="0" width="29" height="30"></rect>
            <ellipse id="Oval" stroke="#FFFFFF" stroke-width="2" cx="14.5" cy="15" rx="13.5" ry="14"></ellipse>
            <path d="M8.2415815,12.5543953 L10.810827,12.5543953 L10.810827,21.8173087 L8.2415815,21.8173087 L8.2415815,12.5543953 Z M9.46071367,11.3957671 L9.4421128,11.3957671 C8.51206919,11.3957671 7.90909091,10.6876681 7.90909091,9.79097545 C7.90909091,8.87594733 8.52989502,8.18181818 9.47853951,8.18181818 C10.426409,8.18181818 11.0092363,8.8742011 11.0278372,9.78835609 C11.0278372,10.6850487 10.426409,11.3957671 9.46071367,11.3957671 L9.46071367,11.3957671 Z M21.0909091,21.8181818 L18.1775475,21.8181818 L18.1775475,17.0238885 C18.1775475,15.7692173 17.7218261,14.9135613 16.7197041,14.9135613 C15.9531931,14.9135613 15.5269232,15.4906926 15.3285139,16.0486152 C15.2541104,16.2476862 15.2657359,16.526211 15.2657359,16.8056089 L15.2657359,21.8181818 L12.3795006,21.8181818 C12.3795006,21.8181818 12.4167023,13.326232 12.3795006,12.5543953 L15.2657359,12.5543953 L15.2657359,14.0081375 C15.4362439,13.3725072 16.3585372,12.4653372 17.8303312,12.4653372 C19.6563168,12.4653372 21.0909091,13.798589 21.0909091,16.6667831 L21.0909091,21.8181818 L21.0909091,21.8181818 Z" id="Shape" fill="#FFFFFF"></path>
        </g>
    </g>
</svg>