<?xml version="1.0" encoding="UTF-8"?>
<svg width="50px" height="50px" viewBox="0 0 50 50" version="1.1" xmlns="http://www.w3.org/2000/svg" xmlns:xlink="http://www.w3.org/1999/xlink">
    <!-- Generator: Sketch 52.2 (67145) - http://www.bohemiancoding.com/sketch -->
    <title>linkedin</title>
    <desc>Created with Sketch.</desc>
    <g id="Page-1" stroke="none" stroke-width="1" fill="none" fill-rule="evenodd">
        <g id="works-01-Streamline" transform="translate(-1133.000000, -858.000000)">
            <g id="Group-2" transform="translate(0.000000, 807.000000)">
                <g id="linkedin" transform="translate(1133.000000, 51.000000)">
                    <rect id="Rectangle" x="0" y="0" width="50" height="50"></rect>
                    <circle id="Oval" fill="#4A4A4A" cx="25" cy="25" r="25"></circle>
                    <path d="M14.2096233,20.9239921 L18.6393569,20.9239921 L18.6393569,36.3621812 L14.2096233,36.3621812 L14.2096233,20.9239921 Z M16.3115753,18.9929452 L16.2795048,18.9929452 C14.6759814,18.9929452 13.6363636,17.8127801 13.6363636,16.3182924 C13.6363636,14.7932456 14.7067156,13.6363636 16.3423095,13.6363636 C17.9765672,13.6363636 18.9814419,14.7903352 19.0135124,16.3139268 C19.0135124,17.8084145 17.9765672,18.9929452 16.3115753,18.9929452 L16.3115753,18.9929452 Z M36.3636364,36.3636364 L31.3405991,36.3636364 L31.3405991,28.3731475 C31.3405991,26.2820289 30.5548726,24.8559355 28.827076,24.8559355 C27.5055054,24.8559355 26.7705572,25.8178209 26.4284722,26.7476921 C26.3001903,27.0794771 26.3202343,27.543685 26.3202343,28.0093482 L26.3202343,36.3636364 L21.3439665,36.3636364 C21.3439665,36.3636364 21.4081074,22.2103866 21.3439665,20.9239921 L26.3202343,20.9239921 L26.3202343,23.3468958 C26.6142136,22.2875121 28.2043744,20.775562 30.7419503,20.775562 C33.8902014,20.775562 36.3636364,22.9976484 36.3636364,27.7779718 L36.3636364,36.3636364 L36.3636364,36.3636364 Z" id="Shape" fill="#FFFFFF"></path>
                </g>
            </g>
        </g>
    </g>
</svg>