<svg xmlns="http://www.w3.org/2000/svg" viewBox="0 0 64 63.9"><defs><style>.cls-1{fill:#fff;}</style></defs><title>logo-white</title><g id="Layer_2" data-name="Layer 2"><g id="Layer_1-2" data-name="Layer 1"><rect class="cls-1" width="5.11" height="63.9"/><polygon class="cls-1" points="64 39.26 64 63.9 29.45 63.9 29.45 0 34.55 0 34.55 58.8 58.9 58.8 58.9 39.26 64 39.26"/><polygon class="cls-1" points="54.18 39.26 54.18 53.99 39.26 53.99 39.26 0 44.37 0 44.37 48.98 49.08 48.98 49.08 39.26 54.18 39.26"/><polygon class="cls-1" points="24.74 0 24.74 34.35 9.82 34.35 9.82 0 14.92 0 14.92 29.45 19.63 29.45 19.63 0 24.74 0"/><polygon class="cls-1" points="24.74 39.26 24.74 63.9 19.63 63.9 19.63 44.28 14.92 44.28 14.92 63.9 9.82 63.9 9.82 39.26 24.74 39.26"/></g></g></svg>