<svg xmlns="http://www.w3.org/2000/svg" viewBox="0 0 72 71.89"><defs><style>.cls-1{fill:#525352;}</style></defs><title>logo-grey</title><g id="Layer_2" data-name="Layer 2"><g id="Layer_1-2" data-name="Layer 1"><rect class="cls-1" width="5.74" height="71.89"/><polygon class="cls-1" points="72 44.17 72 71.89 33.13 71.89 33.13 0 38.87 0 38.87 66.15 66.26 66.15 66.26 44.17 72 44.17"/><polygon class="cls-1" points="60.96 44.17 60.96 60.73 44.17 60.73 44.17 0 49.91 0 49.91 55.1 55.22 55.1 55.22 44.17 60.96 44.17"/><polygon class="cls-1" points="27.83 0 27.83 38.65 11.04 38.65 11.04 0 16.79 0 16.79 33.13 22.09 33.13 22.09 0 27.83 0"/><polygon class="cls-1" points="27.83 44.17 27.83 71.89 22.09 71.89 22.09 49.81 16.79 49.81 16.79 71.89 11.04 71.89 11.04 44.17 27.83 44.17"/></g></g></svg>