<?xml version="1.0" encoding="utf-8"?>
<!-- Generator: Adobe Illustrator 23.0.0, SVG Export Plug-In . SVG Version: 6.00 Build 0)  -->
<svg version="1.1" id="Layer_1" xmlns="http://www.w3.org/2000/svg" xmlns:xlink="http://www.w3.org/1999/xlink" x="0px" y="0px"
	 viewBox="0 0 64 63.8" style="enable-background:new 0 0 64 63.8;" xml:space="preserve">
<style type="text/css">
	.st0{fill:#FFFFFF;}
	.st1{fill:#2B9E80;}
	.st2{fill:#F15E57;}
</style>
<title>logo with back</title>
<g>
	<g id="Layer_1-2">
		<rect x="7.6" y="7.4" class="st0" width="49" height="48.8"/>
		<rect x="7.7" y="7.4" class="st1" width="3.9" height="48.8"/>
		<polygon class="st2" points="56.5,37.4 56.5,56.2 30.1,56.2 30.1,7.4 34,7.4 34,52.3 52.6,52.3 52.6,37.4 		"/>
		<polygon class="st2" points="49,37.4 49,48.6 37.6,48.6 37.6,7.4 41.5,7.4 41.5,44.8 45.1,44.8 45.1,37.4 		"/>
		<polygon class="st1" points="26.5,7.4 26.5,33.6 15.1,33.6 15.1,7.4 19,7.4 19,29.9 22.6,29.9 22.6,7.4 		"/>
		<polygon class="st1" points="26.5,37.4 26.5,56.2 22.6,56.2 22.6,41.2 19,41.2 19,56.2 15.1,56.2 15.1,37.4 		"/>
	</g>
</g>
</svg>
