<svg xmlns="http://www.w3.org/2000/svg" viewBox="0 0 131.82 102.17"><title>quote</title><g id="Layer_2" data-name="Layer 2"><g id="Layer_1-2" data-name="Layer 1"><path d="M126.08.18c1.71,5.08-.42,6.9-4.28,8.8C104.29,17.6,93.27,31,92.62,51.3c-.19,6,1,6.55,6.19,3.78,10.15-5.45,20.94-2.7,28.59,7.31,6.55,8.55,5.72,22.11-1.85,30.4C112,107.7,89,104.44,79.34,85.66c-9.55-18.57-6.53-36.94,3.84-54.15C92.93,15.32,108.66,6.8,126.08.18Z"/><path d="M52,0c1.53,5.14,0,7.1-4,8.84C29.73,16.89,18,34.39,18.59,52c.16,5.13,1.25,5.82,5.5,3.5C32.31,51,40.41,51.05,47.9,56.9c8,6.29,11.6,14.75,9.17,24.75-4.77,19.68-28.11,27-43.63,14C4.58,88.19.52,78.4.06,67.14-1,39.49,12.33,20.31,35.86,7.41,40.92,4.64,46.35,2.56,52,0Z"/></g></g></svg>