<?xml version="1.0" encoding="utf-8"?>
<!-- Generator: Adobe Illustrator 23.0.4, SVG Export Plug-In . SVG Version: 6.00 Build 0)  -->
<svg version="1.1" id="Layer_1" transform="rotate(0, 369.5, 982.5)"
	 xmlns="http://www.w3.org/2000/svg" xmlns:xlink="http://www.w3.org/1999/xlink" x="0px" y="0px" viewBox="0 0 2551.3 3323.9"
	 style="enable-background:new 0 0 2551.3 3323.9;" xml:space="preserve">
<style type="text/css">
	.st0{fill:#FFFFFF;}
	.st1{fill:none;stroke:#4D9EF6;stroke-dasharray:0,0;}
	.st2{fill:#FFFFFF;stroke:#4D96E0;stroke-width:2;}
	.st3{fill:#4D9EF6;}
	.st4{fill:#52565F;}
	.st5{font-family:'Roboto-Regular';}
	.st6{font-size:48.2251px;}
	.st7{fill-rule:evenodd;clip-rule:evenodd;fill:#FFFFFF;}
	.st8{fill:none;stroke:#FE9524;stroke-width:8;stroke-miterlimit:10;}
	.st9{fill:none;stroke:#FE9524;stroke-width:8;stroke-miterlimit:10;stroke-dasharray:117.9926,117.9926;}
	.st10{fill:none;stroke:#FE9524;stroke-width:8;stroke-miterlimit:10;stroke-dasharray:95.2843,95.2843;}
</style>
<rect y="0.8" class="st0" width="2549" height="3321.7"/>
<desc>Created with Snap</desc>
<path class="st1" d="M1272.8,328v265.2v265.2"/>
<path class="st1" d="M1272.8,1389H893.9H515"/>
<path class="st1" d="M1272.8,1389h378.9H1272.8"/>
<path class="st1" d="M1272.8,1389h378.9h378.9"/>
<path class="st1" d="M1272.8,1389v265.2v265.2"/>
<path class="st1" d="M1272.8,858.5v265.2V1389"/>
<path class="st1" d="M515,1389h378.9h378.9"/>
<path class="st1" d="M1272.8,1919.5v265.2v265.2"/>
<path class="st1" d="M1272.8,2449.9v265.2v265.2"/>
<path class="st2" d="M966.2,221.3h308.3h308.3l0,0v108.5v108.5l0,0h-308.3H966.2l0,0V329.8V221.3z"/>
<path class="st3" d="M1264.2,438.3c0,4.8,3.8,8.6,8.6,8.6s8.6-3.8,8.6-8.6s-3.8-8.6-8.6-8.6S1264.2,433.4,1264.2,438.3"/>
<text transform="matrix(1 0 0 1 1128.373 347.0273)" class="st4 st5 st6">Landing Page</text>
<path class="st2" d="M966.2,1282.2h308.3h308.3l0,0v108.5v108.5l0,0h-308.3H966.2l0,0v-108.5V1282.2z"/>
<path class="st3" d="M966.2,1380.4c-4.8,0-8.6,3.8-8.6,8.6s3.8,8.6,8.6,8.6s8.6-3.8,8.6-8.6S971,1380.4,966.2,1380.4"/>
<path class="st3" d="M1582.8,1397.6c4.8,0,8.6-3.8,8.6-8.6s-3.8-8.6-8.6-8.6c-4.8,0-8.6,3.8-8.6,8.6S1578,1397.6,1582.8,1397.6"/>
<path class="st3" d="M1264.2,1499.2c0,4.8,3.8,8.6,8.6,8.6s8.6-3.8,8.6-8.6s-3.8-8.6-8.6-8.6S1264.2,1494.4,1264.2,1499.2"/>
<path class="st3" d="M1250.4,1282.2c0,12.4,10,22.4,22.4,22.4s22.4-10,22.4-22.4s-10-22.4-22.4-22.4S1250.4,1269.8,1250.4,1282.2"/>
<g>
	<polygon class="st7" points="1260.7,1277 1272.8,1294.3 1284.9,1277 	"/>
</g>
<text transform="matrix(1 0 0 1 1181.7656 1407.9785)" class="st4 st5 st6">Discover</text>
<path class="st2" d="M1120.2,770l154.3-90.2l154.3,90.2l0,0l154.3,90.2l-154.3,90.2l0,0l-154.3,90.6l-154.3-90.2l0,0l-154.3-90.2
	L1120.2,770z"/>
<path class="st3" d="M1250.4,679.4c0,12.4,10,22.4,22.4,22.4s22.4-10,22.4-22.4s-10-22.4-22.4-22.4S1250.4,667,1250.4,679.4"/>
<g>
	<polygon class="st7" points="1260.7,674.2 1272.8,691.5 1284.9,674.2 	"/>
</g>
<path class="st3" d="M1264.2,1041.1c0,4.8,3.8,8.6,8.6,8.6s8.6-3.8,8.6-8.6c0-4.8-3.8-8.6-8.6-8.6S1264.2,1036.3,1264.2,1041.1"/>
<text transform="matrix(1 0 0 1 1103.6709 877.502)" class="st4 st5 st6">Sign Up/ Sign In</text>
<path class="st2" d="M208.4,1282.2h308.3H825l0,0v108.5v108.5l0,0H516.7H208.4l0,0v-108.5V1282.2z"/>
<path class="st3" d="M825,1366.6c-12.4,0-22.4,10-22.4,22.4s10,22.4,22.4,22.4s22.4-10,22.4-22.4S837.4,1366.6,825,1366.6"/>
<g>
	<polygon class="st7" points="830.2,1376.9 812.9,1389 830.2,1401 	"/>
</g>
<text transform="matrix(1 0 0 1 428.7949 1407.9785)" class="st4 st5 st6">Redeem</text>
<path class="st2" d="M1724,1282.2h308.3h308.3l0,0v108.5v108.5l0,0h-308.3H1724l0,0v-108.5V1282.2z"/>
<path class="st3" d="M1724,1411.4c12.4,0,22.4-10,22.4-22.4s-10-22.4-22.4-22.4s-22.4,10-22.4,22.4S1711.6,1411.4,1724,1411.4"/>
<g>
	<polygon class="st7" points="1718.9,1401 1736.1,1389 1718.9,1376.9 	"/>
</g>
<text transform="matrix(1 0 0 1 1934.126 1407.9785)" class="st4 st5 st6">About Us</text>
<path class="st2" d="M1120.2,1830.9l154.3-90.2l154.3,90.2l0,0l154.3,90.2l-154.3,90.2l0,0l-154.3,90.6l-154.3-90.2l0,0l-154.3-90.2
	L1120.2,1830.9z"/>
<path class="st3" d="M1250.4,1740.3c0,12.4,10,22.4,22.4,22.4s22.4-10,22.4-22.4s-10-22.4-22.4-22.4S1250.4,1727.9,1250.4,1740.3"/>
<g>
	<polygon class="st7" points="1260.7,1735.2 1272.8,1752.4 1284.9,1735.2 	"/>
</g>
<path class="st3" d="M1264.2,2102c0,4.8,3.8,8.6,8.6,8.6s8.6-3.8,8.6-8.6s-3.8-8.6-8.6-8.6S1264.2,2097.2,1264.2,2102"/>
<text transform="matrix(1 0 0 1 1117.9766 1938.4551)" class="st4 st5 st6">Click Offer Tile</text>
<path class="st2" d="M966.2,2343.2h308.3h308.3l0,0v108.5v108.5l0,0h-308.3H966.2l0,0v-108.5V2343.2z"/>
<path class="st3" d="M1250.4,2343.2c0,12.4,10,22.4,22.4,22.4s22.4-10,22.4-22.4s-10-22.4-22.4-22.4S1250.4,2330.8,1250.4,2343.2"/>
<g>
	<polygon class="st7" points="1260.7,2338 1272.8,2355.2 1284.9,2338 	"/>
</g>
<path class="st3" d="M1264.2,2560.2c0,4.8,3.8,8.6,8.6,8.6s8.6-3.8,8.6-8.6s-3.8-8.6-8.6-8.6S1264.2,2555.4,1264.2,2560.2"/>
<text transform="matrix(1 0 0 1 1110.8887 2468.9316)" class="st4 st5 st6">Expanded View</text>
<path class="st2" d="M1088.5,2870.2h186h186l0,0c61.7,0,112,50.3,112,112l0,0c0,61.7-50.3,112-112,112l0,0l0,0h-186h-186l0,0
	c-61.7,0-112-50.3-112-112l0,0C976.6,2920.5,1026.8,2870.2,1088.5,2870.2z"/>
<path class="st3" d="M1250.4,2870.2c0,12.4,10,22.4,22.4,22.4s22.4-10,22.4-22.4s-10-22.4-22.4-22.4S1250.4,2857.8,1250.4,2870.2"/>
<g>
	<polygon class="st7" points="1260.7,2865 1272.8,2882.2 1284.9,2865 	"/>
</g>
<text transform="matrix(1 0 0 1 1197.8848 2999.4062)" class="st4 st5 st6">Donate</text>
<g>
	<g>
		<g>
			<polyline class="st8" points="1673.1,3165.1 1673.1,3185.7 1652.4,3185.7 			"/>
		</g>
		<g>
			<g>
				<line class="st8" x1="1613.1" y1="3185.7" x2="1563.1" y2="3185.7"/>
				<line class="st9" x1="1445.1" y1="3185.7" x2="1032.2" y2="3185.7"/>
				<line class="st8" x1="973.2" y1="3185.7" x2="923.2" y2="3185.7"/>
			</g>
		</g>
		<g>
			<polyline class="st8" points="903.5,3185.7 882.9,3185.7 882.9,3165.1 			"/>
		</g>
		<g>
			<g>
				<line class="st8" x1="882.9" y1="3123" x2="882.9" y2="3073"/>
				<line class="st10" x1="882.9" y1="2977.7" x2="882.9" y2="1310.3"/>
				<line class="st8" x1="882.9" y1="1262.6" x2="882.9" y2="1212.6"/>
			</g>
		</g>
		<g>
			<polyline class="st8" points="882.9,1191.6 882.9,1170.9 903.5,1170.9 			"/>
		</g>
		<g>
			<g>
				<line class="st8" x1="942.8" y1="1170.9" x2="992.8" y2="1170.9"/>
				<line class="st9" x1="1110.8" y1="1170.9" x2="1523.8" y2="1170.9"/>
				<line class="st8" x1="1582.8" y1="1170.9" x2="1632.8" y2="1170.9"/>
			</g>
		</g>
		<g>
			<polyline class="st8" points="1652.4,1170.9 1673.1,1170.9 1673.1,1191.6 			"/>
		</g>
		<g>
			<g>
				<line class="st8" x1="1673.1" y1="1233.6" x2="1673.1" y2="1283.6"/>
				<line class="st10" x1="1673.1" y1="1378.9" x2="1673.1" y2="3046.4"/>
				<line class="st8" x1="1673.1" y1="3094" x2="1673.1" y2="3144"/>
			</g>
		</g>
	</g>
</g>
</svg>
