<svg xmlns="http://www.w3.org/2000/svg" viewBox="0 0 63.57 63.57"><defs><style>.cls-1{fill:#fce45d;}.cls-2{fill:#fff;}.cls-3{fill:#415e6d;}.cls-4{fill:#104866;}.cls-5{fill:#51ba77;}.cls-6{fill:#eaeaea;}.cls-7{fill:#d4d6d6;}.cls-8{fill:#0c508e;opacity:0.5;}</style></defs><title>business</title><g id="Layer_2" data-name="Layer 2"><g id="背景"><g id="图层_1_图像" data-name="图层 1 图像"><circle class="cls-1" cx="31.78" cy="31.78" r="31.79" transform="translate(-4.65 58.11) rotate(-80.85)"/><path class="cls-2" d="M38.74,7.45a2,2,0,1,1,2-2A2,2,0,0,1,38.74,7.45Zm0-3a1.06,1.06,0,1,0,1,1A1.05,1.05,0,0,0,38.74,4.41Z"/><path class="cls-2" d="M26.82,58.11a2,2,0,1,1,2-2A2,2,0,0,1,26.82,58.11Zm0-3a1.06,1.06,0,1,0,1.05,1.06A1.07,1.07,0,0,0,26.82,55.06Z"/><path class="cls-2" d="M24.87,5.41c0-.19.22-.39.49-.43l.92-.14a.72.72,0,0,0,.57-.56L27,3.35c0-.27.23-.49.43-.49s.38.22.42.49l.14.93a.72.72,0,0,0,.57.56l.92.14c.27,0,.49.24.49.43s-.22.39-.49.43L28.55,6a.72.72,0,0,0-.57.56l-.14.92c0,.27-.23.5-.42.5S27,7.73,27,7.46L26.84,6.4a.64.64,0,0,0-.56-.53l-.92-.07C25.09,5.78,24.87,5.6,24.87,5.41Z"/><rect class="cls-3" x="3.48" y="9.93" width="55.62" height="38.74" rx="3.97"/><path class="cls-4" d="M55.13,49.66H7.45A4.47,4.47,0,0,1,3,45.19V14.4A4.48,4.48,0,0,1,7.45,9.93H55.13A4.48,4.48,0,0,1,59.6,14.4V45.19A4.47,4.47,0,0,1,55.13,49.66ZM7.45,10.93A3.48,3.48,0,0,0,4,14.4V45.19a3.48,3.48,0,0,0,3.48,3.48H55.13a3.48,3.48,0,0,0,3.47-3.48V14.4a3.48,3.48,0,0,0-3.47-3.47Z"/><rect class="cls-5" x="6.46" y="13.91" width="49.66" height="33.28" rx="1.99"/><path class="cls-4" d="M54.13,47.68H8.44A2.49,2.49,0,0,1,6,45.19V15.89a2.48,2.48,0,0,1,2.48-2.48H54.13a2.49,2.49,0,0,1,2.49,2.48v29.3A2.5,2.5,0,0,1,54.13,47.68ZM8.44,14.4A1.49,1.49,0,0,0,7,15.89v29.3a1.49,1.49,0,0,0,1.49,1.49H54.13a1.48,1.48,0,0,0,1.49-1.49V15.89a1.49,1.49,0,0,0-1.49-1.49Z"/><path class="cls-6" d="M.5,45.19v3.54c0,1.74,1.35,2.42,3.08,2.42H59.89c1.73,0,2.69-.68,2.69-2.42V45.19Z"/><path class="cls-2" d="M.5,45.19v3.28c0,1.73,1.67,2.68,3.4,2.68H60.21a2.55,2.55,0,0,0,2.86-2.68V45.19Z"/><path class="cls-7" d="M25.33,45.19v1.6c0,.51,1,.89,1.48.89h9.61c.51,0,1.32-.38,1.32-.89v-1.6Z"/><path class="cls-7" d="M62.58,50.16c0-1,.43-1.49-.25-1.49H1.74A1.24,1.24,0,0,0,.5,49.91h0a1.23,1.23,0,0,0,1.24,1.24H61.33C62,51.15,62.58,50.16,62.58,50.16Z"/><path class="cls-4" d="M60.21,51.65H3.9C2,51.65,0,50.56,0,48.47V45.19a.49.49,0,0,1,.5-.49H63.07a.49.49,0,0,1,.5.49v3.28A3,3,0,0,1,60.21,51.65ZM1,45.69v2.78c0,1.44,1.47,2.19,2.91,2.19H60.21a2.09,2.09,0,0,0,2.37-2.19V45.69Z"/><path class="cls-2" d="M15.75,33.55a.5.5,0,0,1-.35-.85L29.13,19a.5.5,0,0,1,.7,0,.48.48,0,0,1,0,.7L16.1,33.41A.52.52,0,0,1,15.75,33.55Z"/><path class="cls-2" d="M28.31,37.07a.5.5,0,0,1-.35-.85L41.69,22.49a.5.5,0,0,1,.71,0,.5.5,0,0,1,0,.7L28.66,36.92A.49.49,0,0,1,28.31,37.07Z"/><path class="cls-2" d="M37.52,34.89a.5.5,0,0,1-.35-.85l7.37-7.37a.5.5,0,0,1,.7,0,.48.48,0,0,1,0,.7l-7.37,7.38A.5.5,0,0,1,37.52,34.89Z"/><path class="cls-2" d="M16.08,41.76a.5.5,0,0,1-.35-.85L31.31,25.33a.5.5,0,0,1,.7,0A.51.51,0,0,1,32,26L16.43,41.61A.47.47,0,0,1,16.08,41.76Z"/><path class="cls-2" d="M35.09,22.75a.5.5,0,0,1-.35-.85l5-5a.5.5,0,0,1,.7,0,.51.51,0,0,1,0,.71l-5,5A.47.47,0,0,1,35.09,22.75Z"/><path class="cls-8" d="M60.09,47.18H55.62a.5.5,0,0,1,0-1h4.47a.5.5,0,1,1,0,1Z"/><path class="cls-8" d="M51.65,47.18H40.72a.5.5,0,0,1,0-1H51.65a.5.5,0,1,1,0,1Z"/><path class="cls-8" d="M22.35,47.18H4a.5.5,0,0,1,0-1H22.35a.5.5,0,1,1,0,1Z"/><path class="cls-4" d="M32.72,12.91H30.85a.5.5,0,1,1,0-1h1.87a.5.5,0,1,1,0,1Z"/></g></g></g></svg>