<svg xmlns="http://www.w3.org/2000/svg" viewBox="0 0 63.57 63.57"><defs><style>.cls-1{fill:#fce45d;}.cls-2,.cls-6{fill:#fff;}.cls-3{fill:#104866;}.cls-4{fill:#eaeaea;}.cls-5{fill:#51ba77;}.cls-6{opacity:0.5;}</style></defs><title>traveler</title><g id="Layer_2" data-name="Layer 2"><g id="背景"><g id="图层_1_图像" data-name="图层 1 图像"><path class="cls-1" d="M63.57,31.78A31.79,31.79,0,1,1,31.78,0,31.79,31.79,0,0,1,63.57,31.78Z"/><path class="cls-2" d="M44.12,49.33a2.65,2.65,0,1,1-2.65-2.65A2.65,2.65,0,0,1,44.12,49.33Z"/><path class="cls-2" d="M25.21,49.33a2.65,2.65,0,1,1-2.65-2.65A2.65,2.65,0,0,1,25.21,49.33Z"/><path class="cls-3" d="M58.61,53.14H5.46a.5.5,0,0,1,0-1H58.61a.5.5,0,0,1,0,1Z"/><path class="cls-2" d="M38.12,6.16a1.84,1.84,0,0,1-2,1.65H27.86a1.84,1.84,0,0,1-2-1.65,1.85,1.85,0,0,1,2-1.66h8.27A1.85,1.85,0,0,1,38.12,6.16Z"/><path class="cls-4" d="M36.13,6.5H27.86a2,2,0,0,1-1.84-1,1.35,1.35,0,0,0-.15.62,1.85,1.85,0,0,0,2,1.66h8.27a1.85,1.85,0,0,0,2-1.66A1.35,1.35,0,0,0,38,5.46,2,2,0,0,1,36.13,6.5Z"/><rect class="cls-5" x="17.76" y="14.24" width="28.47" height="32.45" rx="3.97"/><path class="cls-3" d="M41.47,52.64a3.23,3.23,0,1,1,3.23-3.22A3.23,3.23,0,0,1,41.47,52.64Zm0-5.46a2.24,2.24,0,1,0,2.23,2.24A2.24,2.24,0,0,0,41.47,47.18Z"/><path class="cls-3" d="M22.6,52.64a3.23,3.23,0,1,1,3.22-3.22A3.23,3.23,0,0,1,22.6,52.64Zm0-5.46a2.24,2.24,0,1,0,2.23,2.24A2.24,2.24,0,0,0,22.6,47.18Z"/><path class="cls-3" d="M36.25,8.44H27.81A2.61,2.61,0,0,1,26,7.7a2.07,2.07,0,0,1-.62-1.5A2.41,2.41,0,0,1,27.86,4h8.39a2.38,2.38,0,0,1,2.49,2.24A2.38,2.38,0,0,1,36.25,8.44ZM27.86,5a1.44,1.44,0,0,0-1.52,1.24,1.12,1.12,0,0,0,.34.79,1.56,1.56,0,0,0,1.13.45h8.44a1.38,1.38,0,0,0,1.49-1.24A1.37,1.37,0,0,0,36.25,5Z"/><path class="cls-5" d="M42.26,43.7H21.73a4,4,0,0,1-4-4v2.86a4,4,0,0,0,4,4H42.26a4,4,0,0,0,4-4V39.73A4,4,0,0,1,42.26,43.7Z"/><path class="cls-3" d="M27.81,14.65a.5.5,0,0,1-.5-.5V8.44a.5.5,0,0,1,.5-.49.49.49,0,0,1,.5.49v5.71A.5.5,0,0,1,27.81,14.65Z"/><path class="cls-3" d="M36.25,14.65a.49.49,0,0,1-.49-.5V8.44a.5.5,0,0,1,1,0v5.71A.5.5,0,0,1,36.25,14.65Z"/><path class="cls-5" d="M40.49,26.78H23.27a2,2,0,0,1-2-2v2.36a2,2,0,0,0,2,2H40.49a2,2,0,0,0,2-2V24.79A2,2,0,0,1,40.49,26.78Z"/><path class="cls-3" d="M42.21,46.77a.49.49,0,0,1-.49-.49V34.66c0-1.29-.3-1.39-.79-1.39H23.05a1.61,1.61,0,0,0-1.69,1.39V46.28a.5.5,0,0,1-.5.49.49.49,0,0,1-.5-.49V34.66a2.59,2.59,0,0,1,2.69-2.38H40.93c1.78,0,1.78,1.73,1.78,2.38V46.28A.49.49,0,0,1,42.21,46.77Z"/><path class="cls-3" d="M40.23,29.8H23.34a2.49,2.49,0,0,1-2.48-2.49V19.87a2.49,2.49,0,0,1,2.48-2.49H40.23a2.49,2.49,0,0,1,2.48,2.49v7.44A2.49,2.49,0,0,1,40.23,29.8ZM23.34,18.38a1.49,1.49,0,0,0-1.49,1.49v7.44a1.5,1.5,0,0,0,1.49,1.5H40.23a1.5,1.5,0,0,0,1.49-1.5V19.87a1.49,1.49,0,0,0-1.49-1.49Z"/><path class="cls-3" d="M42.22,47.18H21.84a4.47,4.47,0,0,1-4.46-4.47V18.38a4.47,4.47,0,0,1,4.46-4.47H42.22a4.47,4.47,0,0,1,4.46,4.47V42.71A4.47,4.47,0,0,1,42.22,47.18ZM21.84,14.9a3.48,3.48,0,0,0-3.47,3.48V42.71a3.48,3.48,0,0,0,3.47,3.48H42.22a3.48,3.48,0,0,0,3.47-3.48V18.38a3.48,3.48,0,0,0-3.47-3.48Z"/><path class="cls-4" d="M42.71,49.42a1.24,1.24,0,1,1-1.24-1.25A1.25,1.25,0,0,1,42.71,49.42Z"/><path class="cls-4" d="M23.84,49.42a1.24,1.24,0,1,1-1.24-1.25A1.25,1.25,0,0,1,23.84,49.42Z"/><path class="cls-6" d="M40.22,25.33a.49.49,0,0,1-.49-.5v-4a.51.51,0,0,0-.5-.5H32.78a.5.5,0,1,1,0-1h6.45a1.49,1.49,0,0,1,1.49,1.49v4A.5.5,0,0,1,40.22,25.33Z"/><path class="cls-6" d="M40.23,42.36a.49.49,0,0,1-.5-.49V35.76a.5.5,0,0,0-.5-.5H24.63a.5.5,0,1,1,0-1h14.6a1.49,1.49,0,0,1,1.49,1.49v6.11A.49.49,0,0,1,40.23,42.36Z"/><path class="cls-6" d="M29.31,20.36H24.82a.5.5,0,0,1,0-1h4.49a.5.5,0,0,1,0,1Z"/><path class="cls-6" d="M44.2,30.29a.5.5,0,0,1-.5-.49V18.87a2.48,2.48,0,0,0-2.48-2.48H21.85a.5.5,0,0,1,0-1H41.22a3.48,3.48,0,0,1,3.48,3.47V29.8A.5.5,0,0,1,44.2,30.29Z"/><path class="cls-6" d="M44.2,41.72a.51.51,0,0,1-.5-.5V33.28a.5.5,0,0,1,1,0v7.94A.51.51,0,0,1,44.2,41.72Z"/><path class="cls-2" d="M56.62,29.8a2,2,0,1,1,2-2A2,2,0,0,1,56.62,29.8Zm0-3a1,1,0,1,0,1,1A1,1,0,0,0,56.62,26.82Z"/><path class="cls-2" d="M6.46,29.8a2,2,0,1,1,2-2A2,2,0,0,1,6.46,29.8Zm0-3a1,1,0,1,0,1,1A1,1,0,0,0,6.46,26.82Z"/><path class="cls-2" d="M11.92,45.69a2,2,0,1,1,2-2A2,2,0,0,1,11.92,45.69Zm0-3a1,1,0,1,0,1,1A1,1,0,0,0,11.92,42.71Z"/><path class="cls-2" d="M54.8,42.61c0-.2-.22-.39-.49-.43L53.38,42a.72.72,0,0,1-.56-.57l-.14-.92c0-.27-.24-.49-.43-.49s-.39.22-.43.49l-.14.92a.72.72,0,0,1-.56.57l-.93.14c-.27,0-.49.23-.49.43s.22.38.49.43l.93.14a.7.7,0,0,1,.56.56l.14.92c0,.27.24.49.43.49s.39-.22.42-.49l.15-1.06a.65.65,0,0,1,.57-.53L54.3,43C54.58,43,54.8,42.8,54.8,42.61Z"/><path class="cls-2" d="M16.85,12.31c0-.19-.23-.38-.5-.42l-.92-.14a.75.75,0,0,1-.57-.57l-.13-.92c0-.27-.24-.49-.43-.49s-.39.22-.43.49l-.14.92a.73.73,0,0,1-.56.57l-.93.14c-.27,0-.49.23-.49.42s.22.39.49.43l.93.14a.72.72,0,0,1,.56.57l.14.92c0,.27.23.49.43.49s.38-.22.42-.49l.15-1.07a.65.65,0,0,1,.56-.53l.92-.07C16.62,12.68,16.85,12.51,16.85,12.31Z"/><path class="cls-2" d="M55.33,16c0-.2-.22-.39-.49-.43l-.92-.14a.74.74,0,0,1-.57-.57L53.21,14c0-.27-.23-.49-.42-.49s-.39.22-.43.49l-.14.92a.72.72,0,0,1-.56.57l-.93.14c-.27,0-.49.23-.49.43s.22.38.49.42l.93.14a.73.73,0,0,1,.56.57l.14.92c0,.27.23.49.43.49s.38-.22.42-.49L53.36,17a.65.65,0,0,1,.56-.53l.92-.07C55.11,16.41,55.33,16.23,55.33,16Z"/></g></g></g></svg>